<svg width="24" height="24" viewBox="0 0 24 24" fill="none" xmlns="http://www.w3.org/2000/svg">
<path d="M16 4H18C18.5304 4 19.0391 4.21071 19.4142 4.58579C19.7893 4.96086 20 5.46957 20 6V20C20 20.5304 19.7893 21.0391 19.4142 21.4142C19.0391 21.7893 18.5304 22 18 22H6C5.46957 22 4.96086 21.7893 4.58579 21.4142C4.21071 21.0391 4 20.5304 4 20V6C4 5.46957 4.21071 4.96086 4.58579 4.58579C4.96086 4.21071 5.46957 4 6 4H8" stroke="#171717" stroke-width="2" stroke-linecap="round" stroke-linejoin="round"/>
<path d="M15 2H9C8.44772 2 8 2.44772 8 3V5C8 5.55228 8.44772 6 9 6H15C15.5523 6 16 5.55228 16 5V3C16 2.44772 15.5523 2 15 2Z" stroke="#171717" stroke-width="2" stroke-linecap="round" stroke-linejoin="round"/>
<path fill-rule="evenodd" clip-rule="evenodd" d="M12 9C12.2761 9 12.5 9.22386 12.5 9.5V18.6667C12.5 18.9428 12.2761 19.1667 12 19.1667C11.7239 19.1667 11.5 18.9428 11.5 18.6667V9.5C11.5 9.22386 11.7239 9 12 9Z" fill="#171717"/>
<path fill-rule="evenodd" clip-rule="evenodd" d="M9.57358 11.2416C9.94084 10.8743 10.439 10.668 10.9583 10.668H14.0833C14.3595 10.668 14.5833 10.8918 14.5833 11.168C14.5833 11.4441 14.3595 11.668 14.0833 11.668H10.9583C10.7042 11.668 10.4604 11.7689 10.2807 11.9487C10.101 12.1284 10 12.3721 10 12.6263C10 12.8805 10.101 13.1242 10.2807 13.3039C10.4604 13.4837 10.7042 13.5846 10.9583 13.5846H13.0417C13.561 13.5846 14.0592 13.791 14.4264 14.1582C14.7937 14.5255 15 15.0236 15 15.543C15 16.0624 14.7937 16.5605 14.4264 16.9277C14.0592 17.295 13.561 17.5013 13.0417 17.5013H9.5C9.22386 17.5013 9 17.2774 9 17.0013C9 16.7252 9.22386 16.5013 9.5 16.5013H13.0417C13.2958 16.5013 13.5396 16.4003 13.7193 16.2206C13.899 16.0409 14 15.7971 14 15.543C14 15.2888 13.899 15.045 13.7193 14.8653C13.5396 14.6856 13.2958 14.5846 13.0417 14.5846H10.9583C10.439 14.5846 9.94084 14.3783 9.57358 14.0111C9.20632 13.6438 9 13.1457 9 12.6263C9 12.1069 9.20632 11.6088 9.57358 11.2416Z" fill="#171717"/>
</svg>
