<svg width="48" height="47" viewBox="0 0 48 47" fill="none" xmlns="http://www.w3.org/2000/svg">
<path fill-rule="evenodd" clip-rule="evenodd" d="M38.3212 4.4391L38.5924 17.7613L35.8178 14.8443L32.3368 12.4754L38.3212 4.4391ZM34.3396 12.245L37.0578 14.5417L36.9399 8.75309L34.3396 12.245Z" fill="#181A18"/>
<path d="M10.1511 6.94584L14.6615 12.5386L10.3236 16.5017L10.1511 6.94584Z" fill="#181A18"/>
<path fill-rule="evenodd" clip-rule="evenodd" d="M42.4963 27.6073C41.5214 23.6296 40.0868 20.031 38.3109 17.8183C34.631 13.2337 29.6426 10.6747 24.4648 10.6024C19.287 10.5301 14.2291 12.9488 10.4226 17.4289C8.5856 19.5911 7.05111 23.1483 5.96552 27.0972C4.88729 31.0193 4.29152 35.1809 4.24598 38.4424C4.23568 39.18 4.3466 39.6115 4.47334 39.8588C4.58137 40.0696 4.72465 40.1978 4.96158 40.2903C5.23638 40.3976 5.6579 40.4613 6.292 40.4356C6.91818 40.4102 7.6723 40.3019 8.5709 40.1287C9.43557 39.962 10.4172 39.7368 11.5011 39.4881C14.8447 38.721 19.1623 37.7305 24.0274 37.5451C29.7274 37.328 34.5825 38.686 38.1076 39.672C38.6292 39.818 39.1217 39.9557 39.5836 40.079C40.4897 40.321 41.2509 40.5011 41.8901 40.5935C42.5413 40.6877 42.9679 40.675 43.2406 40.6055C43.4629 40.5489 43.566 40.4631 43.6501 40.3203C43.7633 40.128 43.888 39.7403 43.8984 38.9961C43.9439 35.7346 43.4646 31.558 42.4963 27.6073ZM39.2272 17.0829C43.0991 21.9067 45.1674 32.2683 45.0733 39.0125C45.0201 42.8229 42.3607 42.0802 37.7759 40.7999C34.2458 39.8142 29.5743 38.5096 24.0722 38.7193C19.3302 38.8999 15.1787 39.8519 11.8465 40.616C6.29072 41.8899 3.01223 42.6417 3.07109 38.426C3.16527 31.6818 5.52213 21.382 9.52718 16.6681C13.5322 11.9542 18.9114 9.3497 24.4812 9.42747C30.051 9.50525 35.3553 12.259 39.2272 17.0829Z" fill="#181A18"/>
<path d="M18.3359 28.7006C18.3359 28.7006 14.1744 23.7472 15.4903 17.5916C16.4755 12.983 20.4891 11.2508 22.5513 10.839C23.7933 10.5909 28.6726 10.0848 28.6726 10.0848C28.6726 10.0848 27.6429 9.82979 27.3488 9.77288C19.6177 8.27676 13.2378 11.954 9.23276 16.6679C5.22771 21.3818 2.87085 31.6816 2.77667 38.4258C2.6825 45.1701 10.5401 40.3997 15.0938 39.8122C20.3813 38.4258 24.6401 36.4572 41.1422 41.7447C49.2366 44.3383 42.5476 24.0149 42.5691 24.572C42.6303 26.164 42.4368 26.9228 42.2972 28.0987C42.1658 30.5964 39.2968 33.5066 37.9393 34.4092C30.1179 39.6096 23.6343 37.2315 21.3174 36.0867C16.4312 33.6723 18.3359 28.7006 18.3359 28.7006Z" fill="#181A18"/>
<path d="M33.6719 22.3426C33.5242 23.4298 33.2065 24.4604 32.6399 25.4172C30.8881 28.3569 27.1548 29.7163 23.9563 28.5926C22.7882 28.1836 21.7955 27.5129 20.9197 26.6623C20.3855 26.0301 19.8993 25.3668 19.5731 24.5943C18.4884 22.0046 18.6907 19.5167 20.3272 17.2314C21.9054 15.0281 24.1351 14.0321 26.8144 14.1861C28.9529 14.3068 30.7198 15.2692 32.0634 16.9422C33.3264 18.5088 33.8189 20.3317 33.6719 22.3426ZM27.9121 18.4929C25.922 17.4379 23.4114 18.5764 22.9419 20.7482C22.3667 23.3868 24.6797 25.6059 27.2812 24.9084C28.652 24.5399 29.7352 23.1702 29.771 21.7597C29.7739 21.5845 29.7558 21.5269 29.5643 21.6197C29.2932 21.7431 28.9987 21.7419 28.7186 21.6359C28.2246 21.4502 27.952 21.0831 27.9131 20.557C27.8737 20.0627 28.1408 19.6079 28.6414 19.3955C28.9251 19.2786 28.8536 19.2011 28.6914 19.0522C28.4481 18.8289 28.1914 18.6467 27.9121 18.4929Z" fill="#181A18"/>
<path d="M28.7427 31.8348C25.5161 32.5893 24.2907 32.3026 22.7232 32.1655C22.4317 32.6238 26.8598 36.1055 32.7174 33.2789C38.5151 30.4813 38.1005 25.8963 37.9601 26.0494C36.0635 28.1176 35.04 28.8582 33.8696 29.5999L33.0043 30.0805L31.2346 31.0177L29.769 31.5347C29.769 31.5347 29.1827 31.732 28.7427 31.8348Z" fill="#181A18"/>
</svg>
