<svg width="24" height="24" viewBox="0 0 24 24" fill="none" xmlns="http://www.w3.org/2000/svg">
<path d="M21 6H3C1.89543 6 1 6.89543 1 8V20C1 21.1046 1.89543 22 3 22H21C22.1046 22 23 21.1046 23 20V8C23 6.89543 22.1046 6 21 6Z" stroke="#171717" stroke-width="2" stroke-linecap="round" stroke-linejoin="round"/>
<path d="M12.8182 1.25H11.1818C10.6823 1.25 10.4456 1.64392 10.3784 1.78263C10.2861 1.97303 10.25 2.1834 10.25 2.375V4.625C10.25 4.8166 10.2861 5.02697 10.3784 5.21737C10.4456 5.35608 10.6823 5.75 11.1818 5.75H12.8182C13.3177 5.75 13.5544 5.35608 13.6216 5.21737C13.7139 5.02697 13.75 4.8166 13.75 4.625V2.375C13.75 2.1834 13.7139 1.97303 13.6216 1.78263C13.5544 1.64392 13.3177 1.25 12.8182 1.25Z" stroke="#171717" stroke-width="1.5" stroke-linecap="round" stroke-linejoin="round"/>
<path d="M16.6673 19.25V18.0833C16.6673 17.4645 16.4215 16.871 15.9839 16.4334C15.5463 15.9958 14.9528 15.75 14.334 15.75H9.66732C9.04848 15.75 8.45499 15.9958 8.0174 16.4334C7.57982 16.871 7.33398 17.4645 7.33398 18.0833V19.25" stroke="#171717" stroke-width="1.5" stroke-linecap="round" stroke-linejoin="round"/>
<path d="M11.9993 13.4167C13.288 13.4167 14.3327 12.372 14.3327 11.0833C14.3327 9.79467 13.288 8.75 11.9993 8.75C10.7107 8.75 9.66602 9.79467 9.66602 11.0833C9.66602 12.372 10.7107 13.4167 11.9993 13.4167Z" stroke="#171717" stroke-width="1.5" stroke-linecap="round" stroke-linejoin="round"/>
</svg>
