<svg width="164" height="164" viewBox="0 0 164 164" fill="none" xmlns="http://www.w3.org/2000/svg">
<g clip-path="url(#clip0_1_1964)">
<path d="M4.88251 117.175C20.5869 153.361 68.5491 161.643 100.834 153.502C107.172 151.904 152.196 139.731 162.037 97.0369C168.946 67.0659 155.232 36.3047 132.028 20.039C99.5505 -2.72677 57.2381 9.04077 32.9176 29.5158C10.9087 48.0445 -9.26905 84.5669 4.88251 117.175Z" fill="#C2E5FF"/>
<mask id="mask0_1_1964" style="mask-type:luminance" maskUnits="userSpaceOnUse" x="0" y="7" width="164" height="150">
<path d="M4.72185 117.248C20.4589 153.51 68.5211 161.809 100.873 153.651C107.225 152.05 152.342 139.851 162.204 97.0683C169.127 67.0349 155.385 36.2096 132.132 19.9099C99.5874 -2.90335 57.1868 8.88866 32.8155 29.4063C10.7607 47.9738 -9.45909 84.5722 4.72185 117.248Z" fill="white"/>
</mask>
<g mask="url(#mask0_1_1964)">
<path d="M70.4066 42.523C70.2312 42.523 70.0579 42.5316 69.8836 42.5363C67.8707 34.0228 60.227 27.6858 51.0985 27.6858C44.7793 27.6858 39.1698 30.722 35.6474 35.4146C32.789 34.2589 29.6656 33.6211 26.393 33.6211C12.7485 33.6211 1.6875 44.6821 1.6875 58.3266C1.6875 71.9711 12.7485 83.0321 26.393 83.0321C29.8883 83.0321 33.2132 82.3046 36.2269 80.9955C39.3051 84.3468 43.7225 86.4486 48.6317 86.4486C54.2898 86.4486 59.2925 83.6554 62.3463 79.3757C64.8 80.505 67.5286 81.1394 70.4066 81.1394C81.0702 81.1394 89.7148 72.4948 89.7148 61.8313C89.7148 51.1677 81.0702 42.523 70.4066 42.523ZM111.051 72.1224C111.189 72.1224 111.326 72.1156 111.464 72.1119C113.055 78.84 119.096 83.8481 126.31 83.8481C131.304 83.8481 135.737 81.4487 138.521 77.7401C140.78 78.6534 143.248 79.1575 145.834 79.1575C156.617 79.1575 165.359 70.416 165.359 59.633C165.359 48.8499 156.617 40.1085 145.834 40.1085C143.072 40.1085 140.444 40.6833 138.063 41.718C135.63 39.0696 132.139 37.4085 128.259 37.4085C123.788 37.4085 119.834 39.616 117.421 42.9982C115.423 42.0781 113.25 41.6026 111.051 41.6045C102.624 41.6045 95.7919 48.4362 95.7919 56.8634C95.7919 65.2907 102.623 72.1224 111.051 72.1224Z" fill="white"/>
</g>
<mask id="mask1_1_1964" style="mask-type:luminance" maskUnits="userSpaceOnUse" x="0" y="7" width="164" height="150">
<path d="M4.72185 117.248C20.4589 153.51 68.5211 161.809 100.873 153.651C107.225 152.05 152.342 139.851 162.204 97.0683C169.127 67.0349 155.385 36.2096 132.132 19.9099C99.5874 -2.90335 57.1868 8.88866 32.8155 29.4063C10.7607 47.9738 -9.45909 84.5722 4.72185 117.248Z" fill="white"/>
</mask>
<g mask="url(#mask1_1_1964)">
<path d="M7.01074 148.507C7.01074 148.507 38.3008 68.763 54.3805 64.4659C68.7156 60.6352 107.24 117.325 107.24 117.325C107.24 117.325 123.626 92.543 134.946 82.3348C137.667 79.8819 141.914 80.3396 144.061 83.3068C151.147 93.0961 167.333 117.026 180.802 148.507H7.01074Z" fill="#FFBE55"/>
</g>
<mask id="mask2_1_1964" style="mask-type:luminance" maskUnits="userSpaceOnUse" x="0" y="7" width="164" height="150">
<path d="M4.72185 117.248C20.4589 153.51 68.5211 161.809 100.873 153.651C107.225 152.05 152.342 139.851 162.204 97.0683C169.127 67.0349 155.385 36.2096 132.132 19.9099C99.5874 -2.90335 57.1868 8.88866 32.8155 29.4063C10.7607 47.9738 -9.45909 84.5722 4.72185 117.248Z" fill="white"/>
</mask>
<g mask="url(#mask2_1_1964)">
<path opacity="0.25" d="M7.01074 148.507C7.01074 148.507 38.3008 68.763 54.3805 64.4659C68.7156 60.6352 107.24 117.325 107.24 117.325C107.24 117.325 123.626 92.543 134.946 82.3348C137.667 79.8819 141.914 80.3396 144.061 83.3068C151.147 93.0961 167.333 117.026 180.802 148.507H7.01074Z" fill="#282828"/>
</g>
<mask id="mask3_1_1964" style="mask-type:luminance" maskUnits="userSpaceOnUse" x="0" y="7" width="164" height="150">
<path d="M4.72185 117.248C20.4589 153.51 68.5211 161.809 100.873 153.651C107.225 152.05 152.342 139.851 162.204 97.0683C169.127 67.0349 155.385 36.2096 132.132 19.9099C99.5874 -2.90335 57.1868 8.88866 32.8155 29.4063C10.7607 47.9738 -9.45909 84.5722 4.72185 117.248Z" fill="white"/>
</mask>
<g mask="url(#mask3_1_1964)">
<path d="M42.369 120.029L30.6392 158.02H44.686L42.369 120.029Z" fill="#FFBE55"/>
</g>
<mask id="mask4_1_1964" style="mask-type:luminance" maskUnits="userSpaceOnUse" x="0" y="7" width="164" height="150">
<path d="M4.72185 117.248C20.4589 153.51 68.5211 161.809 100.873 153.651C107.225 152.05 152.342 139.851 162.204 97.0683C169.127 67.0349 155.385 36.2096 132.132 19.9099C99.5874 -2.90335 57.1868 8.88866 32.8155 29.4063C10.7607 47.9738 -9.45909 84.5722 4.72185 117.248Z" fill="white"/>
</mask>
<g mask="url(#mask4_1_1964)">
<path d="M173.194 158.02C165.784 152.23 158.295 146.541 150.73 140.955C130.176 125.779 101.371 105.687 79.036 104.033C75.9487 103.805 73.3967 103.959 72.8414 103.995C67.1724 104.361 53.7193 105.229 45.4773 115.27C32.0422 131.637 44.17 156.932 44.686 158.02L173.194 158.02Z" fill="#FFBE55"/>
</g>
<mask id="mask5_1_1964" style="mask-type:luminance" maskUnits="userSpaceOnUse" x="0" y="7" width="164" height="150">
<path d="M4.72185 117.248C20.4589 153.51 68.5211 161.809 100.873 153.651C107.225 152.05 152.342 139.851 162.204 97.0683C169.127 67.0349 155.385 36.2096 132.132 19.9099C99.5874 -2.90335 57.1868 8.88866 32.8155 29.4063C10.7607 47.9738 -9.45909 84.5722 4.72185 117.248Z" fill="white"/>
</mask>
<g mask="url(#mask5_1_1964)">
<path opacity="0.5" d="M173.194 158.02C165.784 152.23 158.295 146.541 150.73 140.955C130.176 125.779 101.371 105.687 79.036 104.033C75.9487 103.805 73.3967 103.959 72.8414 103.995C67.1724 104.361 53.7193 105.229 45.4773 115.27C32.0422 131.637 44.17 156.932 44.686 158.02L173.194 158.02Z" fill="white"/>
</g>
<mask id="mask6_1_1964" style="mask-type:luminance" maskUnits="userSpaceOnUse" x="0" y="7" width="164" height="150">
<path d="M4.72185 117.248C20.4589 153.51 68.5211 161.809 100.873 153.651C107.225 152.05 152.342 139.851 162.204 97.0683C169.127 67.0349 155.385 36.2096 132.132 19.9099C99.5874 -2.90335 57.1868 8.88866 32.8155 29.4063C10.7607 47.9738 -9.45909 84.5722 4.72185 117.248Z" fill="white"/>
</mask>
<g mask="url(#mask6_1_1964)">
<path opacity="0.5" d="M59.1592 128.462L87.3926 158.02H103.775L66.8545 128.462H59.1592ZM80.4805 128.462L119.156 158.02H135.538L88.1758 128.462H80.4805ZM87.3926 112.01L137.012 148.507C137.012 148.507 150.221 145.342 160.829 148.507L89.4753 112.01H87.3926Z" fill="#0B4870"/>
</g>
<mask id="mask7_1_1964" style="mask-type:luminance" maskUnits="userSpaceOnUse" x="0" y="7" width="164" height="150">
<path d="M4.72185 117.248C20.4589 153.51 68.5211 161.809 100.873 153.651C107.225 152.05 152.342 139.851 162.204 97.0683C169.127 67.0349 155.385 36.2096 132.132 19.9099C99.5874 -2.90335 57.1868 8.88866 32.8155 29.4063C10.7607 47.9738 -9.45909 84.5722 4.72185 117.248Z" fill="white"/>
</mask>
<g mask="url(#mask7_1_1964)">
<path d="M87.3926 112.01V38.8038H89.4752V112.01C89.4565 112.038 89.0434 112.616 88.3431 112.566C87.7532 112.524 87.4323 112.069 87.3926 112.01Z" fill="#0B4870"/>
</g>
<mask id="mask8_1_1964" style="mask-type:luminance" maskUnits="userSpaceOnUse" x="0" y="7" width="164" height="150">
<path d="M4.72185 117.248C20.4589 153.51 68.5211 161.809 100.873 153.651C107.225 152.05 152.342 139.851 162.204 97.0683C169.127 67.0349 155.385 36.2096 132.132 19.9099C99.5874 -2.90335 57.1868 8.88866 32.8155 29.4063C10.7607 47.9738 -9.45909 84.5722 4.72185 117.248Z" fill="white"/>
</mask>
<g mask="url(#mask8_1_1964)">
<path d="M75.4971 66.2569C75.8901 65.7052 76.2428 65.1259 76.5526 64.5235C77.2896 63.0902 78.4253 60.8821 77.535 59.5306C77.3962 59.3202 77.1315 59.0136 76.5961 58.7708C76.5393 58.948 76.482 59.1251 76.4244 59.3021C75.3178 62.698 74.8944 63.4434 75.015 64.6373C75.0543 65.0264 75.1642 65.5904 75.4971 66.2569Z" fill="#0B4870"/>
<path d="M75.3029 64.7492C74.5885 67.3089 71.1421 67.4361 71.1421 67.4361L75.3029 64.7492ZM71.532 68.6175C71.532 68.6175 67.2957 70.0635 66.4219 70.6196C66.4219 70.6196 72.198 76.7093 80.6429 70.4061C79.9707 69.9907 79.8507 69.9744 78.9394 69.576C77.7636 69.0619 76.1033 68.3687 75.1696 68.146L71.532 68.6175Z" fill="#EFB68F"/>
<path d="M71.3491 67.4203L71.6178 69.1767L75.3032 69.0314L75.8852 64.4661H75.0019L71.3491 67.4203Z" fill="#EFB68F"/>
<path d="M76.8142 63.4024C76.668 63.8565 76.3348 64.2377 75.8848 64.4661C74.6075 65.1005 74.3107 63.4784 74.8622 62.7402C75.5185 61.8607 77.2038 62.1828 76.8142 63.4024Z" fill="#EFB68F"/>
<path d="M70.8228 68.9437C70.8228 68.9437 73.0703 71.7351 76.4283 68.5483C76.9835 68.5938 77.5809 68.904 78.3139 69.1101C79.1272 69.339 79.9094 69.6667 80.643 70.0857L80.1993 90.317H67.6507L66.3018 70.6893C66.8108 70.4059 67.4075 69.9286 68.0899 69.6692C68.9733 69.3335 69.8892 69.0903 70.8228 68.9437Z" fill="#FFBE55"/>
<path d="M80.9879 96.7562C80.0714 98.1107 79.1409 98.5365 78.5576 98.6945C78.3776 98.7433 77.8029 98.7575 76.6546 98.8074C75.77 98.8458 74.8493 98.8659 73.8806 98.8637C73.3307 98.8625 72.7809 98.854 72.2313 98.8384C70.5247 98.7899 69.6712 98.775 69.3395 98.6897C68.7282 98.5326 67.6543 98.0609 66.6211 96.3252L67.6174 90.3171H80.1907L80.9879 96.7562Z" fill="#0B4870"/>
<path d="M83.9353 126.205L82.9394 120.029L80.4805 120.364L81.4709 126.533L83.9353 126.205Z" fill="#FFBE55"/>
<path d="M81.0801 126.017L80.6431 127.954H88.3384V127.897C88.3384 127.679 88.2764 127.465 88.1597 127.28C88.0431 127.095 87.8764 126.947 87.6791 126.853L84.1077 125.428C83.9792 125.367 83.8142 125.37 83.7163 125.473C83.2548 125.96 82.7479 126.753 81.339 125.893C81.2368 125.83 81.103 125.9 81.0801 126.017Z" fill="#0B4870"/>
<path d="M80.6431 127.954H88.3384V128.462H80.6431V127.954Z" fill="#FFBE55"/>
<path d="M77.266 108.799L82.2723 108.137L80.8945 95.9258C80.7018 94.2178 79.1449 93.0007 77.4409 93.2259C76.6585 93.4903 75.9426 93.921 75.3425 94.4883C74.4499 95.3336 74.0516 96.2602 73.8809 96.7469C75.009 100.764 76.1375 104.782 77.266 108.799Z" fill="#0B4870"/>
<path d="M79.9512 123.787L84.1636 123.23L81.8209 103.94C81.638 102.442 80.2678 101.381 78.7713 101.579C77.2532 101.779 76.2017 103.195 76.4485 104.706L79.9512 123.787Z" fill="#0B4870"/>
<path d="M63.7329 126.205L64.7287 120.029L67.1876 120.364L66.1971 126.533L63.7329 126.205Z" fill="#FFBE55"/>
<path d="M70.2914 108.799L65.396 108.137L66.663 95.9258C66.8557 94.2178 68.4126 93.0007 70.1166 93.2259C70.2116 93.2385 70.5464 93.2877 70.9523 93.4669C70.9523 93.4669 71.7252 93.8124 72.215 94.4883C72.7569 95.2362 72.777 96.1528 72.7228 96.8839C72.5907 98.6655 71.7435 103.051 70.2914 108.799Z" fill="#0B4870"/>
<path d="M67.7169 123.787L63.5044 123.23L65.8471 103.94C66.03 102.442 67.4002 101.381 68.8967 101.579C70.4148 101.779 71.4663 103.195 71.2195 104.706L67.7169 123.787Z" fill="#0B4870"/>
<path d="M79.4166 89.1897C79.7625 89.0747 79.9582 89.1509 79.9582 89.1509C80.1552 88.8743 80.5194 88.8392 80.7558 89.074L80.9232 89.2402C81.1419 89.4573 81.1707 89.8276 80.9888 90.0837L80.9785 90.0985C80.9785 90.0985 80.6561 90.9661 79.9261 91.7487C78.9831 92.7598 78.1223 92.7399 77.8638 92.3894C77.6197 92.0581 78.6763 90.8035 79.0633 90.3326L78.4653 90.5251C78.3894 90.5496 78.3081 90.5161 78.2645 90.4424C78.2177 90.3632 78.2265 90.2582 78.2857 90.1901L78.755 89.6506C78.9387 89.4394 79.1638 89.2739 79.4166 89.1897Z" fill="#EFB68F"/>
<path d="M80.2271 88.9462L85.1175 80.701C85.5453 79.9907 86.4353 79.8653 87.0074 80.4346C87.5241 80.9489 87.5751 81.8319 87.1216 82.4161L81.1034 89.7792L80.2271 88.9462Z" fill="#EFB68F"/>
<path d="M81.6828 71.4351C82.9025 73.0806 84.5599 74.8067 86.9853 79.3402C87.2422 79.8204 87.7142 80.7301 87.4724 81.6328C87.3602 82.0517 87.1284 82.3418 86.9498 82.5211C86.7009 82.4847 86.3094 82.3914 85.8845 82.1255C85.3424 81.7862 85.0185 81.3366 84.8604 81.0825L78.2657 73.1294C77.659 72.3403 77.7473 71.1513 78.4585 70.5316C79.1206 69.955 81.1298 70.6892 81.6828 71.4351Z" fill="#EFB68F"/>
<path d="M76.8249 68.8078C77.6426 68.9087 78.631 69.1275 79.68 69.5905C82.875 71.0002 84.4315 73.7013 84.9817 74.7927L82.081 78.4688C81.4247 77.9024 80.8024 77.2978 80.2173 76.6582C79.0119 75.3413 77.9654 74.1982 77.338 72.4939C77.0653 71.7531 76.7217 70.4988 76.8249 68.8078Z" fill="#FFBE55"/>
<path d="M68.2981 89.1897C67.9541 89.0747 67.7596 89.1509 67.7596 89.1509C67.5639 88.8743 67.2017 88.8392 66.9667 89.074L66.8002 89.2402C66.5828 89.4573 66.5542 89.8276 66.735 90.0837L66.7454 90.0985C66.7454 90.0985 67.0659 90.9661 67.7916 91.7487C68.7291 92.7598 69.5851 92.7399 69.8419 92.3894C70.0846 92.0581 69.0342 90.8035 68.6493 90.3326L69.244 90.5251C69.3194 90.5496 69.4003 90.5161 69.4436 90.4424C69.4902 90.3632 69.4815 90.2582 69.4226 90.1901L68.9559 89.6506C68.7731 89.4394 68.5494 89.2739 68.2981 89.1897Z" fill="#EFB68F"/>
<path d="M67.4923 88.9462L62.6301 80.701C62.205 79.9907 61.32 79.8653 60.7512 80.4346C60.2375 80.9489 60.1868 81.8319 60.6375 82.4161L66.6209 89.7792L67.4923 88.9462Z" fill="#EFB68F"/>
<path d="M66.0449 71.4351C64.8323 73.0806 63.1845 74.8067 60.773 79.3402C60.5176 79.8204 60.0484 80.7301 60.2886 81.6328C60.4002 82.0517 60.6306 82.3418 60.8082 82.5211C61.0557 82.4847 61.445 82.3914 61.8674 82.1255C62.4063 81.7862 62.7283 81.3366 62.8856 81.0825L69.442 73.1294C70.0451 72.3403 69.9574 71.1513 69.2503 70.5316C68.5924 69.955 66.5947 70.6892 66.0449 71.4351Z" fill="#EFB68F"/>
<path d="M70.8799 68.8078C70.067 68.9069 69.0772 69.1244 68.0248 69.5905C64.9116 70.9695 63.383 73.5809 62.8364 74.6487L65.7865 78.8416C66.3691 78.3058 66.9202 77.7369 67.4373 77.1377C68.4936 75.9137 69.6879 74.5297 70.3668 72.4941C70.6256 71.7179 70.9387 70.4596 70.8799 68.8078Z" fill="#FFBE55"/>
<path d="M66.4174 126.017L66.8545 127.954H59.1592V127.897C59.1592 127.679 59.2211 127.465 59.3378 127.28C59.4545 127.095 59.6211 126.947 59.8185 126.853L63.3898 125.428C63.5183 125.367 63.6834 125.37 63.7812 125.473C64.2428 125.96 64.7497 126.753 66.1586 125.893C66.2608 125.83 66.3946 125.9 66.4174 126.017Z" fill="#0B4870"/>
<path d="M66.8545 128.462H59.1592V127.954H66.8545V128.462Z" fill="#FFBE55"/>
<path d="M71.3491 67.4203C71.4907 67.6255 71.6978 67.8416 71.9886 67.9195C72.9019 68.1645 73.9439 66.8607 74.3628 66.3368C74.748 65.8535 75.0645 65.3192 75.3033 64.7492C75.1036 65.072 74.8412 65.4267 71.3491 67.4203Z" fill="#E0A882"/>
<path d="M75.8388 58.7686C74.4603 57.0813 71.392 56.7777 69.8688 58.1078C69.1777 58.7113 68.991 59.4885 68.7155 60.6353C68.6313 60.9858 68.0391 63.6122 69.3484 66.0313C69.8551 66.9675 70.2954 67.2237 70.6026 67.3309C71.222 67.5469 71.8126 67.3277 72.3579 67.1386C73.4629 66.7551 74.139 66.0569 74.3865 65.7954C75.569 64.5459 77.6521 60.9879 75.8388 58.7686Z" fill="#EFB68F"/>
<path d="M73.9849 59.7571C73.9849 59.7571 76.02 60.5478 75.0906 63.1486L75.7831 63.2425C75.7831 63.2425 75.9317 62.2128 76.836 62.3675C76.836 62.3675 77.5681 58.7508 75.7231 57.8714L73.9849 59.7571Z" fill="#0B4870"/>
<path d="M73.9848 59.7571C73.9848 59.7571 71.6025 58.1467 69.6345 59.1208C69.4196 59.069 68.9258 58.9167 68.5611 58.4619C68.0755 57.8565 68.0177 56.9629 68.4027 56.1714C68.4027 56.1714 68.7705 56.3169 69.2499 56.4298C69.9267 56.5891 70.4606 56.5164 70.7662 56.492C71.4288 56.4389 72.6642 56.3401 73.5359 56.5257C74.11 56.6479 74.8875 56.9704 75.7231 57.8714C76.233 58.3487 76.2728 59.1462 75.8323 59.6572C75.3716 60.192 74.5271 60.2483 73.9848 59.7571Z" fill="#0B4870"/>
<path d="M69.6343 59.1208C69.6343 59.1208 68.9758 59.9801 68.5908 61.8079C68.5908 61.8079 68.7637 58.9542 69.4134 58.81C70.0631 58.6658 69.6343 59.1208 69.6343 59.1208Z" fill="#0B4870"/>
</g>
<mask id="mask9_1_1964" style="mask-type:luminance" maskUnits="userSpaceOnUse" x="0" y="7" width="164" height="150">
<path d="M4.72185 117.248C20.4589 153.51 68.5211 161.809 100.873 153.651C107.225 152.05 152.342 139.851 162.204 97.0683C169.127 67.0349 155.385 36.2096 132.132 19.9099C99.5874 -2.90335 57.1868 8.88866 32.8155 29.4063C10.7607 47.9738 -9.45909 84.5722 4.72185 117.248Z" fill="white"/>
</mask>
<g mask="url(#mask9_1_1964)">
<path d="M123.867 56.1323C121.417 55.6795 117.671 55.2251 113.183 55.6974C106.729 56.3768 104.178 58.4014 98.6791 58.605C95.9007 58.7079 91.8531 58.365 86.8433 56.1323V35.2208C90.1932 37.0208 94.5422 38.5841 99.4719 38.1653C103.705 37.8056 105.6 36.2195 110.513 35.2208C113.835 34.5452 118.3 34.1866 123.867 35.2208L123.867 56.1323Z" fill="#FFBE55"/>
</g>
<mask id="mask10_1_1964" style="mask-type:luminance" maskUnits="userSpaceOnUse" x="0" y="7" width="164" height="150">
<path d="M4.72185 117.248C20.4589 153.51 68.5211 161.809 100.873 153.651C107.225 152.05 152.342 139.851 162.204 97.0683C169.127 67.0349 155.385 36.2096 132.132 19.9099C99.5874 -2.90335 57.1868 8.88866 32.8155 29.4063C10.7607 47.9738 -9.45909 84.5722 4.72185 117.248Z" fill="white"/>
</mask>
<g mask="url(#mask10_1_1964)">
<path d="M105.633 40.5449L107.599 44.5293L111.996 45.1682L108.815 48.2696L109.566 52.6488L105.633 50.5811L101.7 52.6488L102.451 48.2696L99.2695 45.1682L103.667 44.5293L105.633 40.5449Z" fill="white"/>
</g>
</g>
<defs>
<clipPath id="clip0_1_1964">
<rect width="164" height="164" fill="white"/>
</clipPath>
</defs>
</svg>
