<svg width="24" height="24" viewBox="0 0 24 24" fill="none" xmlns="http://www.w3.org/2000/svg">
<path d="M18.4266 17.2402L16.7603 15.574C16.6829 15.4959 16.5907 15.4339 16.4892 15.3916C16.3877 15.3493 16.2788 15.3275 16.1688 15.3275C16.0588 15.3275 15.9499 15.3493 15.8484 15.3916C15.7469 15.4339 15.6547 15.4959 15.5773 15.574L13.911 17.2402C13.8334 17.3179 13.7717 17.4101 13.7297 17.5116C13.6877 17.6131 13.666 17.7219 13.666 17.8318C13.666 17.9416 13.6877 18.0504 13.7297 18.1519C13.7717 18.2534 13.8334 18.3456 13.911 18.4233C13.9887 18.501 14.0809 18.5626 14.1824 18.6046C14.2839 18.6467 14.3927 18.6683 14.5026 18.6683C14.6124 18.6683 14.7212 18.6467 14.8227 18.6046C14.9242 18.5626 15.0164 18.501 15.0941 18.4233L15.3357 18.1734V21.1643C15.3357 21.3853 15.4235 21.5972 15.5797 21.7534C15.7359 21.9097 15.9479 21.9974 16.1688 21.9974C16.3898 21.9974 16.6017 21.9097 16.7579 21.7534C16.9142 21.5972 17.002 21.3853 17.002 21.1643V18.1734L17.2436 18.4233C17.321 18.5014 17.4132 18.5634 17.5147 18.6057C17.6162 18.648 17.7251 18.6697 17.8351 18.6697C17.9451 18.6697 18.054 18.648 18.1555 18.6057C18.257 18.5634 18.3492 18.5014 18.4266 18.4233C18.5047 18.3458 18.5667 18.2537 18.609 18.1522C18.6513 18.0506 18.673 17.9418 18.673 17.8318C18.673 17.7218 18.6513 17.6129 18.609 17.5114C18.5667 17.4098 18.5047 17.3177 18.4266 17.2402Z" fill="black"/>
<path d="M23.4254 18.9058C23.3479 18.8277 23.2558 18.7657 23.1543 18.7234C23.0527 18.6811 22.9438 18.6594 22.8339 18.6594C22.7239 18.6594 22.615 18.6811 22.5135 18.7234C22.4119 18.7657 22.3198 18.8277 22.2423 18.9058L22.0007 19.1557V16.1648C22.0007 15.9438 21.913 15.7319 21.7567 15.5757C21.6005 15.4194 21.3886 15.3317 21.1676 15.3317C20.9466 15.3317 20.7347 15.4194 20.5785 15.5757C20.4222 15.7319 20.3345 15.9438 20.3345 16.1648V19.1557L20.0929 18.9058C19.936 18.7489 19.7232 18.6608 19.5013 18.6608C19.2795 18.6608 19.0667 18.7489 18.9098 18.9058C18.7529 19.0627 18.6648 19.2754 18.6648 19.4973C18.6648 19.7192 18.7529 19.932 18.9098 20.0888L20.5761 21.7551C20.6535 21.8332 20.7457 21.8952 20.8472 21.9375C20.9487 21.9798 21.0576 22.0015 21.1676 22.0015C21.2776 22.0015 21.3865 21.9798 21.488 21.9375C21.5895 21.8952 21.6817 21.8332 21.7591 21.7551L23.4254 20.0888C23.5035 20.0114 23.5655 19.9192 23.6078 19.8177C23.6501 19.7162 23.6718 19.6073 23.6718 19.4973C23.6718 19.3873 23.6501 19.2784 23.6078 19.1769C23.5655 19.0754 23.5035 18.9832 23.4254 18.9058Z" fill="black"/>
<path d="M12.602 20.0123C11.8654 20.2246 11.1024 20.3312 10.3359 20.3289C8.68809 20.3289 7.07731 19.8403 5.70724 18.9248C4.33716 18.0094 3.26931 16.7082 2.63873 15.1858C2.00816 13.6635 1.84317 11.9883 2.16463 10.3722C2.4861 8.75611 3.27958 7.27161 4.44474 6.10645C5.60989 4.94129 7.09439 4.14781 8.71051 3.82635C10.3266 3.50488 12.0018 3.66987 13.5241 4.30045C15.0465 4.93102 16.3477 5.99887 17.2631 7.36895C18.1786 8.73903 18.6672 10.3498 18.6672 11.9976C18.6697 12.8836 18.5291 13.7642 18.2506 14.6053C18.2156 14.7092 18.2014 14.819 18.2088 14.9285C18.2163 15.0379 18.2452 15.1448 18.2939 15.243C18.3924 15.4415 18.5656 15.5927 18.7755 15.6634C18.9854 15.7341 19.2148 15.7185 19.4132 15.6201C19.6117 15.5216 19.7629 15.3484 19.8336 15.1385C20.4975 13.1322 20.5086 10.9671 19.8652 8.95404C19.2219 6.94102 17.9572 5.18364 16.2527 3.93425C14.5483 2.68486 12.4917 2.00772 10.3784 2.00007C8.26511 1.99241 6.20372 2.65462 4.49026 3.89163C2.77679 5.12863 1.49938 6.87679 0.841448 8.88509C0.183518 10.8934 0.17891 13.0585 0.828287 15.0696C1.47766 17.0807 2.74762 18.8343 4.45581 20.0786C6.164 21.3228 8.22254 21.9938 10.3359 21.9952C11.2605 22.0005 12.181 21.8714 13.0685 21.6119C13.2807 21.5501 13.4595 21.4065 13.5658 21.2127C13.672 21.019 13.6969 20.791 13.6351 20.5788C13.5732 20.3667 13.4296 20.1879 13.2359 20.0816C13.0421 19.9754 12.8141 19.9504 12.602 20.0123Z" fill="black"/>
<path d="M12.8341 9.49687C13.0551 9.49687 13.267 9.4091 13.4232 9.25285C13.5795 9.09661 13.6673 8.8847 13.6673 8.66374C13.6673 8.44278 13.5795 8.23087 13.4232 8.07463C13.267 7.91839 13.0551 7.83061 12.8341 7.83061H11.1679V6.99748C11.1679 6.77652 11.0801 6.56461 10.9238 6.40836C10.7676 6.25212 10.5557 6.16434 10.3347 6.16434C10.1138 6.16434 9.90185 6.25212 9.74561 6.40836C9.58937 6.56461 9.50159 6.77652 9.50159 6.99748V7.83061H8.66846C8.22654 7.83061 7.80272 8.00616 7.49024 8.31865C7.17775 8.63113 7.0022 9.05495 7.0022 9.49687V11.1631C7.0022 11.6051 7.17775 12.0289 7.49024 12.3414C7.80272 12.6538 8.22654 12.8294 8.66846 12.8294H12.001V14.4957H7.83533C7.61437 14.4957 7.40246 14.5834 7.24622 14.7397C7.08997 14.8959 7.0022 15.1078 7.0022 15.3288C7.0022 15.5498 7.08997 15.7617 7.24622 15.9179C7.40246 16.0742 7.61437 16.1619 7.83533 16.1619H9.50159V16.9951C9.50159 17.216 9.58937 17.4279 9.74561 17.5842C9.90185 17.7404 10.1138 17.8282 10.3347 17.8282C10.5557 17.8282 10.7676 17.7404 10.9238 17.5842C11.0801 17.4279 11.1679 17.216 11.1679 16.9951V16.1619H12.001C12.4429 16.1619 12.8667 15.9864 13.1792 15.6739C13.4917 15.3614 13.6673 14.9376 13.6673 14.4957V12.8294C13.6673 12.3875 13.4917 11.9637 13.1792 11.6512C12.8667 11.3387 12.4429 11.1631 12.001 11.1631H8.66846V9.49687H12.8341Z" fill="black"/>
</svg>
