<svg width="24" height="24" viewBox="0 0 24 24" fill="none" xmlns="http://www.w3.org/2000/svg">
<path d="M16 2V6" stroke="#171717" stroke-width="2" stroke-linecap="round" stroke-linejoin="round"/>
<path d="M8 2V6" stroke="#171717" stroke-width="2" stroke-linecap="round" stroke-linejoin="round"/>
<path fill-rule="evenodd" clip-rule="evenodd" d="M5 5C4.44772 5 4 5.44772 4 6V20C4 20.5523 4.44772 21 5 21H19C19.5523 21 20 20.5523 20 20V6C20 5.44772 19.5523 5 19 5H5ZM2 6C2 4.34315 3.34315 3 5 3H19C20.6569 3 22 4.34315 22 6V20C22 21.6569 20.6569 23 19 23H5C3.34315 23 2 21.6569 2 20V6Z" fill="#171717"/>
<g clip-path="url(#clip0_1_3024)">
<path d="M12 8.41548V17.5821" stroke="#171717" stroke-linecap="round" stroke-linejoin="round"/>
<path d="M14.0833 10.0845H10.9583C10.5716 10.0845 10.2006 10.2382 9.92714 10.5117C9.65365 10.7851 9.5 11.1561 9.5 11.5429C9.5 11.9296 9.65365 12.3006 9.92714 12.574C10.2006 12.8475 10.5716 13.0012 10.9583 13.0012H13.0417C13.4284 13.0012 13.7994 13.1548 14.0729 13.4283C14.3464 13.7018 14.5 14.0727 14.5 14.4595C14.5 14.8463 14.3464 15.2172 14.0729 15.4907C13.7994 15.7642 13.4284 15.9179 13.0417 15.9179H9.5" stroke="#171717" stroke-linecap="round" stroke-linejoin="round"/>
</g>
<defs>
<clipPath id="clip0_1_3024">
<rect width="10" height="10" fill="white" transform="translate(7 8)"/>
</clipPath>
</defs>
</svg>
